<svg xmlns="http://www.w3.org/2000/svg" width="1200" height="900" viewBox="0 0 1200 900" role="img" aria-label="PlayCanvas model viewer preview">
  <defs>
    <radialGradient id="bg" cx="50%" cy="35%" r="70%">
      <stop offset="0%" stop-color="#2f4d63"/>
      <stop offset="48%" stop-color="#111827"/>
      <stop offset="100%" stop-color="#050505"/>
    </radialGradient>
    <linearGradient id="card" x1="0" y1="0" x2="1" y2="1">
      <stop offset="0%" stop-color="#ffffff" stop-opacity=".22"/>
      <stop offset="100%" stop-color="#ffffff" stop-opacity=".04"/>
    </linearGradient>
  </defs>
  <rect width="1200" height="900" fill="url(#bg)"/>
  <g opacity=".9">
    <circle cx="320" cy="230" r="3" fill="#fff"/>
    <circle cx="540" cy="160" r="2" fill="#fff"/>
    <circle cx="790" cy="250" r="3" fill="#fff"/>
    <circle cx="910" cy="360" r="2" fill="#fff"/>
    <circle cx="250" cy="590" r="2" fill="#fff"/>
    <circle cx="730" cy="660" r="3" fill="#fff"/>
  </g>
  <g transform="translate(300 190)">
    <rect x="0" y="0" width="600" height="470" rx="42" fill="url(#card)" stroke="#fff" stroke-opacity=".18"/>
    <path d="M300 88 468 185v192L300 474 132 377V185z" fill="#f26722" opacity=".88"/>
    <path d="M300 88v191l168-94z" fill="#ffb34a"/>
    <path d="M300 279v195l168-97V185z" fill="#c4421a"/>
    <path d="M300 279 132 185v192l168 97z" fill="#7f2b20"/>
    <path d="M132 185 300 88l168 97-168 94z" fill="#ff7a2c"/>
    <circle cx="300" cy="279" r="82" fill="none" stroke="#fff" stroke-width="8" stroke-opacity=".32"/>
  </g>
  <text x="600" y="765" text-anchor="middle" fill="#fff" font-family="Arial, Helvetica, sans-serif" font-size="42" font-weight="700" letter-spacing="4">PLAYCANVAS MODEL VIEWER</text>
  <text x="600" y="815" text-anchor="middle" fill="#fff" fill-opacity=".55" font-family="Arial, Helvetica, sans-serif" font-size="18" letter-spacing="8">GAUSSIAN SPLAT PREVIEW</text>
</svg>
